{
    "accessors": {
        "accessor_100": {
            "bufferView": "bufferView_105",
            "byteOffset": 9720,
            "byteStride": 12,
            "componentType": 5126,
            "count": 810,
            "max": [
                1,
                0.999747,
                1
            ],
            "min": [
                -1,
                -0.999913,
                -1
            ],
            "type": "VEC3"
        },
        "accessor_102": {
            "bufferView": "bufferView_105",
            "byteOffset": 19440,
            "byteStride": 8,
            "componentType": 5126,
            "count": 810,
            "max": [
                0.999928,
                1
            ],
            "min": [
                0,
                8.2612e-005
            ],
            "type": "VEC2"
        },
        "accessor_84": {
            "bufferView": "bufferView_104",
            "byteOffset": 0,
            "byteStride": 0,
            "componentType": 5123,
            "count": 636,
            "type": "SCALAR"
        },
        "accessor_87": {
            "bufferView": "bufferView_104",
            "byteOffset": 1272,
            "byteStride": 0,
            "componentType": 5123,
            "count": 216,
            "type": "SCALAR"
        },
        "accessor_90": {
            "bufferView": "bufferView_104",
            "byteOffset": 1704,
            "byteStride": 0,
            "componentType": 5123,
            "count": 312,
            "type": "SCALAR"
        },
        "accessor_93": {
            "bufferView": "bufferView_104",
            "byteOffset": 2328,
            "byteStride": 0,
            "componentType": 5123,
            "count": 288,
            "type": "SCALAR"
        },
        "accessor_96": {
            "bufferView": "bufferView_104",
            "byteOffset": 2904,
            "byteStride": 0,
            "componentType": 5123,
            "count": 186,
            "type": "SCALAR"
        },
        "accessor_98": {
            "bufferView": "bufferView_105",
            "byteOffset": 0,
            "byteStride": 12,
            "componentType": 5126,
            "count": 810,
            "max": [
                164.142,
                91.8689,
                49.47
            ],
            "min": [
                -99.7917,
                -78.3814,
                0
            ],
            "type": "VEC3"
        }
    },
    "animations": {},
    "asset": {
        "generator": "collada2gltf@cf6371beb0bdc18ba603378d5e40c966da53d385",
        "premultipliedAlpha": true,
        "profile": {
            "api": "WebGL",
            "version": "1.0.2"
        },
        "version": "1.0"
    },
    "bufferViews": {
        "bufferView_104": {
            "buffer": "BLDG_0003000f004136e0",
            "byteLength": 3276,
            "byteOffset": 0,
            "target": 34963
        },
        "bufferView_105": {
            "buffer": "BLDG_0003000f004136e0",
            "byteLength": 25920,
            "byteOffset": 3276,
            "target": 34962
        }
    },
    "buffers": {
        "BLDG_0003000f004136e0": {
            "byteLength": 29196,
            "type": "arraybuffer",
            "uri": "data:application/octet-stream;base64,"
        }
    },
    "images": {
        "textureAtlas_1097408384_0_img": {
            "name": "textureAtlas_1097408384_0_img",
            "uri": "textureAtlas_1097408384_0.jpeg"
        },
        "textureAtlas_1097408384_1_img": {
            "name": "textureAtlas_1097408384_1_img",
            "uri": "textureAtlas_1097408384_1.jpeg"
        },
        "textureAtlas_1097408384_2_img": {
            "name": "textureAtlas_1097408384_2_img",
            "uri": "textureAtlas_1097408384_2.jpeg"
        },
        "textureAtlas_1097408384_3_img": {
            "name": "textureAtlas_1097408384_3_img",
            "uri": "textureAtlas_1097408384_3.jpeg"
        }
    },
    "materials": {
        "default_ai_0.2_sh_0.2_tr_0.0_dc_r_0.8_g_0.8_b_0.8_sc_r_1.0_g_1.0_b_1.0_ec_r_0.0_g_0.0_b_0_eff": {
            "name": "default_ai_0.2_sh_0.2_tr_0.0_dc_r_0.8_g_0.8_b_0.8_sc_r_1.0_g_1.0_b_1.0_ec_r_0.0_g_0.0_b_0_mat",
            "technique": "technique0",
            "values": {
                "diffuse": [
                    0.8,
                    0.8,
                    0.8,
                    1
                ],
                "emission": [
                    0,
                    0,
                    0,
                    1
                ]
            }
        },
        "textureAtlas_1097408384_0_eff": {
            "name": "textureAtlas_1097408384_0_mat",
            "technique": "technique1",
            "values": {
                "diffuse": "texture_textureAtlas_1097408384_0_img",
                "emission": [
                    0,
                    0,
                    0,
                    1
                ]
            }
        },
        "textureAtlas_1097408384_1_eff": {
            "name": "textureAtlas_1097408384_1_mat",
            "technique": "technique1",
            "values": {
                "diffuse": "texture_textureAtlas_1097408384_1_img",
                "emission": [
                    0,
                    0,
                    0,
                    1
                ]
            }
        },
        "textureAtlas_1097408384_2_eff": {
            "name": "textureAtlas_1097408384_2_mat",
            "technique": "technique1",
            "values": {
                "diffuse": "texture_textureAtlas_1097408384_2_img",
                "emission": [
                    0,
                    0,
                    0,
                    1
                ]
            }
        },
        "textureAtlas_1097408384_3_eff": {
            "name": "textureAtlas_1097408384_3_mat",
            "technique": "technique1",
            "values": {
                "diffuse": "texture_textureAtlas_1097408384_3_img",
                "emission": [
                    0,
                    0,
                    0,
                    1
                ]
            }
        }
    },
    "meshes": {
        "geometry0": {
            "name": "geometry0",
            "primitives": [
                {
                    "attributes": {
                        "NORMAL": "accessor_100",
                        "POSITION": "accessor_98",
                        "TEXCOORD_0": "accessor_102"
                    },
                    "indices": "accessor_84",
                    "material": "textureAtlas_1097408384_3_eff",
                    "mode": 4
                },
                {
                    "attributes": {
                        "NORMAL": "accessor_100",
                        "POSITION": "accessor_98",
                        "TEXCOORD_0": "accessor_102"
                    },
                    "indices": "accessor_87",
                    "material": "textureAtlas_1097408384_2_eff",
                    "mode": 4
                },
                {
                    "attributes": {
                        "NORMAL": "accessor_100",
                        "POSITION": "accessor_98",
                        "TEXCOORD_0": "accessor_102"
                    },
                    "indices": "accessor_90",
                    "material": "textureAtlas_1097408384_0_eff",
                    "mode": 4
                },
                {
                    "attributes": {
                        "NORMAL": "accessor_100",
                        "POSITION": "accessor_98",
                        "TEXCOORD_0": "accessor_102"
                    },
                    "indices": "accessor_93",
                    "material": "textureAtlas_1097408384_1_eff",
                    "mode": 4
                },
                {
                    "attributes": {
                        "NORMAL": "accessor_100",
                        "POSITION": "accessor_98"
                    },
                    "indices": "accessor_96",
                    "material": "default_ai_0.2_sh_0.2_tr_0.0_dc_r_0.8_g_0.8_b_0.8_sc_r_1.0_g_1.0_b_1.0_ec_r_0.0_g_0.0_b_0_eff",
                    "mode": 4
                }
            ]
        }
    },
    "nodes": {
        "node_0": {
            "children": [],
            "matrix": [
                1,
                0,
                0,
                0,
                0,
                1,
                0,
                0,
                0,
                0,
                1,
                0,
                0,
                0,
                0,
                1
            ],
            "meshes": [
                "geometry0"
            ],
            "name": ""
        },
        "node_1": {
            "children": [
                "node_0"
            ],
            "matrix": [
                1,
                0,
                0,
                0,
                0,
                0,
                -1,
                0,
                0,
                1,
                0,
                0,
                0,
                0,
                0,
                1
            ],
            "name": "Y_UP_Transform"
        }
    },
    "programs": {
        "program_0": {
            "attributes": [
                "a_normal",
                "a_position"
            ],
            "fragmentShader": "BLDG_0003000f004136e00FS",
            "vertexShader": "BLDG_0003000f004136e00VS"
        },
        "program_1": {
            "attributes": [
                "a_normal",
                "a_position",
                "a_texcoord0"
            ],
            "fragmentShader": "BLDG_0003000f004136e01FS",
            "vertexShader": "BLDG_0003000f004136e01VS"
        }
    },
    "samplers": {
        "sampler_0": {
            "magFilter": 9729,
            "minFilter": 9729,
            "wrapS": 10497,
            "wrapT": 10497
        }
    },
    "scene": "defaultScene",
    "scenes": {
        "defaultScene": {
            "nodes": [
                "node_1"
            ]
        }
    },
    "shaders": {
        "BLDG_0003000f004136e00FS": {
            "type": 35632,
            "uri": "data:text/plain;base64,"
        },
        "BLDG_0003000f004136e00VS": {
            "type": 35633,
            "uri": "data:text/plain;base64,"
        },
        "BLDG_0003000f004136e01FS": {
            "type": 35632,
            "uri": "data:text/plain;base64,"
        },
        "BLDG_0003000f004136e01VS": {
            "type": 35633,
            "uri": "data:text/plain;base64,"
        }
    },
    "skins": {},
    "techniques": {
        "technique0": {
            "attributes": {
                "a_normal": "normal",
                "a_position": "position"
            },
            "parameters": {
                "diffuse": {
                    "type": 35666
                },
                "emission": {
                    "type": 35666
                },
                "modelViewMatrix": {
                    "semantic": "MODELVIEW",
                    "type": 35676
                },
                "normal": {
                    "semantic": "NORMAL",
                    "type": 35665
                },
                "normalMatrix": {
                    "semantic": "MODELVIEWINVERSETRANSPOSE",
                    "type": 35675
                },
                "position": {
                    "semantic": "POSITION",
                    "type": 35665
                },
                "projectionMatrix": {
                    "semantic": "PROJECTION",
                    "type": 35676
                }
            },
            "program": "program_0",
            "states": {
                "enable": [
                    2929
                ]
            },
            "uniforms": {
                "u_diffuse": "diffuse",
                "u_emission": "emission",
                "u_modelViewMatrix": "modelViewMatrix",
                "u_normalMatrix": "normalMatrix",
                "u_projectionMatrix": "projectionMatrix"
            }
        },
        "technique1": {
            "attributes": {
                "a_normal": "normal",
                "a_position": "position",
                "a_texcoord0": "texcoord0"
            },
            "parameters": {
                "diffuse": {
                    "type": 35678
                },
                "emission": {
                    "type": 35666
                },
                "modelViewMatrix": {
                    "semantic": "MODELVIEW",
                    "type": 35676
                },
                "normal": {
                    "semantic": "NORMAL",
                    "type": 35665
                },
                "normalMatrix": {
                    "semantic": "MODELVIEWINVERSETRANSPOSE",
                    "type": 35675
                },
                "position": {
                    "semantic": "POSITION",
                    "type": 35665
                },
                "projectionMatrix": {
                    "semantic": "PROJECTION",
                    "type": 35676
                },
                "texcoord0": {
                    "semantic": "TEXCOORD_0",
                    "type": 35664
                }
            },
            "program": "program_1",
            "states": {
                "enable": [
                    2929
                ]
            },
            "uniforms": {
                "u_diffuse": "diffuse",
                "u_emission": "emission",
                "u_modelViewMatrix": "modelViewMatrix",
                "u_normalMatrix": "normalMatrix",
                "u_projectionMatrix": "projectionMatrix"
            }
        }
    },
    "textures": {
        "texture_textureAtlas_1097408384_0_img": {
            "format": 6408,
            "internalFormat": 6408,
            "sampler": "sampler_0",
            "source": "textureAtlas_1097408384_0_img",
            "target": 3553,
            "type": 5121
        },
        "texture_textureAtlas_1097408384_1_img": {
            "format": 6408,
            "internalFormat": 6408,
            "sampler": "sampler_0",
            "source": "textureAtlas_1097408384_1_img",
            "target": 3553,
            "type": 5121
        },
        "texture_textureAtlas_1097408384_2_img": {
            "format": 6408,
            "internalFormat": 6408,
            "sampler": "sampler_0",
            "source": "textureAtlas_1097408384_2_img",
            "target": 3553,
            "type": 5121
        },
        "texture_textureAtlas_1097408384_3_img": {
            "format": 6408,
            "internalFormat": 6408,
            "sampler": "sampler_0",
            "source": "textureAtlas_1097408384_3_img",
            "target": 3553,
            "type": 5121
        }
    }
}