# This file uses centimeters as units for non-parametric coordinates.

mtllib ChartScreen.mtl
v -3.171965 -1.000000 -3.865052
v -3.535532 -1.000000 -3.535534
v -3.865051 -1.000000 -3.171966
v -4.157346 -1.000000 -2.777851
v -4.409605 -1.000000 -2.356984
v -4.619396 -1.000000 -1.913418
v -4.784700 -1.000000 -1.451424
v -4.903925 -1.000000 -0.975452
v -4.975922 -1.000000 -0.490086
v -4.999999 -1.000000 -0.000001
v -4.975923 -1.000000 0.490085
v -4.903926 -1.000000 0.975451
v -4.784701 -1.000000 1.451422
v -4.619397 -1.000000 1.913416
v -4.409606 -1.000000 2.356983
v -4.157348 -1.000000 2.777850
v -3.865052 -1.000000 3.171965
v -3.535534 -1.000000 3.535533
v -3.171966 -1.000000 3.865051
v -3.171965 1.000000 -3.865052
v -3.535532 1.000000 -3.535534
v -3.865051 1.000000 -3.171966
v -4.157346 1.000000 -2.777851
v -4.409605 1.000000 -2.356984
v -4.619396 1.000000 -1.913418
v -4.784700 1.000000 -1.451424
v -4.903925 1.000000 -0.975452
v -4.975922 1.000000 -0.490086
v -4.999999 1.000000 -0.000001
v -4.975923 1.000000 0.490085
v -4.903926 1.000000 0.975451
v -4.784701 1.000000 1.451422
v -4.619397 1.000000 1.913416
v -4.409606 1.000000 2.356983
v -4.157348 1.000000 2.777850
v -3.865052 1.000000 3.171965
v -3.535534 1.000000 3.535533
v -3.171966 1.000000 3.865051
vt 0.460938 0.312500
vt 0.464844 0.312500
vt 0.468750 0.312500
vt 0.472656 0.312500
vt 0.476563 0.312500
vt 0.480469 0.312500
vt 0.484375 0.312500
vt 0.488281 0.312500
vt 0.492188 0.312500
vt 0.496094 0.312500
vt 0.500000 0.312500
vt 0.503906 0.312500
vt 0.507813 0.312500
vt 0.511719 0.312500
vt 0.515625 0.312500
vt 0.519531 0.312500
vt 0.523438 0.312500
vt 0.527344 0.312500
vt 0.531250 0.312500
vt 0.460938 0.688440
vt 0.464844 0.688440
vt 0.468750 0.688440
vt 0.472656 0.688440
vt 0.476563 0.688440
vt 0.480469 0.688440
vt 0.484375 0.688440
vt 0.488281 0.688440
vt 0.492188 0.688440
vt 0.496094 0.688440
vt 0.500000 0.688440
vt 0.503906 0.688440
vt 0.507813 0.688440
vt 0.511719 0.688440
vt 0.515625 0.688440
vt 0.519531 0.688440
vt 0.523438 0.688440
vt 0.527344 0.688440
vt 0.531250 0.688440
vn 0.671559 0.000000 0.740951
vn 0.671559 0.000000 0.740951
vn 0.707107 0.000000 0.707107
vn 0.707107 0.000000 0.707107
vn 0.773010 0.000000 0.634394
vn 0.773010 0.000000 0.634394
vn 0.831469 0.000000 0.555570
vn 0.831469 0.000000 0.555570
vn 0.881921 0.000000 0.471397
vn 0.881921 0.000000 0.471397
vn 0.923880 0.000000 0.382684
vn 0.923880 0.000000 0.382684
vn 0.956940 0.000000 0.290285
vn 0.956940 0.000000 0.290285
vn 0.980785 0.000000 0.195091
vn 0.980785 0.000000 0.195091
vn 0.995185 0.000000 0.098017
vn 0.995185 0.000000 0.098017
vn 1.000000 0.000000 0.000000
vn 1.000000 0.000000 0.000000
vn 0.995185 0.000000 -0.098017
vn 0.995185 0.000000 -0.098017
vn 0.980785 0.000000 -0.195090
vn 0.980785 0.000000 -0.195090
vn 0.956940 0.000000 -0.290285
vn 0.956940 0.000000 -0.290285
vn 0.923880 0.000000 -0.382683
vn 0.923880 0.000000 -0.382683
vn 0.881921 0.000000 -0.471396
vn 0.881921 0.000000 -0.471396
vn 0.831470 0.000000 -0.555570
vn 0.831470 0.000000 -0.555570
vn 0.773011 0.000000 -0.634393
vn 0.773011 0.000000 -0.634393
vn 0.707107 0.000000 -0.707107
vn 0.707107 0.000000 -0.707107
vn 0.671559 0.000000 -0.740951
vn 0.671559 0.000000 -0.740951
usemtl initialShadingGroup
f 1/1/1 20/20/2 21/21/3 2/2/4
f 2/2/4 21/21/3 22/22/5 3/3/6
f 3/3/6 22/22/5 23/23/7 4/4/8
f 4/4/8 23/23/7 24/24/9 5/5/10
f 5/5/10 24/24/9 25/25/11 6/6/12
f 6/6/12 25/25/11 26/26/13 7/7/14
f 7/7/14 26/26/13 27/27/15 8/8/16
f 8/8/16 27/27/15 28/28/17 9/9/18
f 9/9/18 28/28/17 29/29/19 10/10/20
f 10/10/20 29/29/19 30/30/21 11/11/22
f 11/11/22 30/30/21 31/31/23 12/12/24
f 12/12/24 31/31/23 32/32/25 13/13/26
f 13/13/26 32/32/25 33/33/27 14/14/28
f 14/14/28 33/33/27 34/34/29 15/15/30
f 15/15/30 34/34/29 35/35/31 16/16/32
f 16/16/32 35/35/31 36/36/33 17/17/34
f 17/17/34 36/36/33 37/37/35 18/18/36
f 18/18/36 37/37/35 38/38/37 19/19/38
