{
    "accessors": {
        "accessor_135": {
            "bufferView": "bufferView_164",
            "byteOffset": 0,
            "byteStride": 0,
            "componentType": 5123,
            "count": 102,
            "type": "SCALAR"
        },
        "accessor_138": {
            "bufferView": "bufferView_164",
            "byteOffset": 204,
            "byteStride": 0,
            "componentType": 5123,
            "count": 222,
            "type": "SCALAR"
        },
        "accessor_141": {
            "bufferView": "bufferView_164",
            "byteOffset": 648,
            "byteStride": 0,
            "componentType": 5123,
            "count": 429,
            "type": "SCALAR"
        },
        "accessor_144": {
            "bufferView": "bufferView_164",
            "byteOffset": 1506,
            "byteStride": 0,
            "componentType": 5123,
            "count": 129,
            "type": "SCALAR"
        },
        "accessor_147": {
            "bufferView": "bufferView_164",
            "byteOffset": 1764,
            "byteStride": 0,
            "componentType": 5123,
            "count": 693,
            "type": "SCALAR"
        },
        "accessor_150": {
            "bufferView": "bufferView_164",
            "byteOffset": 3150,
            "byteStride": 0,
            "componentType": 5123,
            "count": 156,
            "type": "SCALAR"
        },
        "accessor_153": {
            "bufferView": "bufferView_164",
            "byteOffset": 3462,
            "byteStride": 0,
            "componentType": 5123,
            "count": 231,
            "type": "SCALAR"
        },
        "accessor_156": {
            "bufferView": "bufferView_164",
            "byteOffset": 3924,
            "byteStride": 0,
            "componentType": 5123,
            "count": 180,
            "type": "SCALAR"
        },
        "accessor_158": {
            "bufferView": "bufferView_165",
            "byteOffset": 0,
            "byteStride": 12,
            "componentType": 5126,
            "count": 1072,
            "max": [
                116.36,
                23.8508,
                36.6
            ],
            "min": [
                -137.229,
                -183.417,
                0
            ],
            "type": "VEC3"
        },
        "accessor_160": {
            "bufferView": "bufferView_165",
            "byteOffset": 12864,
            "byteStride": 12,
            "componentType": 5126,
            "count": 1072,
            "max": [
                1,
                0.999608,
                1
            ],
            "min": [
                -0.998629,
                -0.999741,
                -1
            ],
            "type": "VEC3"
        },
        "accessor_162": {
            "bufferView": "bufferView_165",
            "byteOffset": 25728,
            "byteStride": 8,
            "componentType": 5126,
            "count": 1072,
            "max": [
                0.999892,
                1
            ],
            "min": [
                0,
                6.55651e-006
            ],
            "type": "VEC2"
        }
    },
    "animations": {},
    "asset": {
        "generator": "collada2gltf@cf6371beb0bdc18ba603378d5e40c966da53d385",
        "premultipliedAlpha": true,
        "profile": {
            "api": "WebGL",
            "version": "1.0.2"
        },
        "version": "1.0"
    },
    "bufferViews": {
        "bufferView_164": {
            "buffer": "BLDG_00030000001ebd92",
            "byteLength": 4284,
            "byteOffset": 0,
            "target": 34963
        },
        "bufferView_165": {
            "buffer": "BLDG_00030000001ebd92",
            "byteLength": 34304,
            "byteOffset": 4284,
            "target": 34962
        }
    },
    "buffers": {
        "BLDG_00030000001ebd92": {
            "byteLength": 38588,
            "type": "arraybuffer",
            "uri": "data:application/octet-stream;base64,"
        }
    },
    "images": {
        "textureAtlas_670915789_0_img": {
            "name": "textureAtlas_670915789_0_img",
            "uri": "textureAtlas_670915789_0.jpeg"
        },
        "textureAtlas_670915789_1_img": {
            "name": "textureAtlas_670915789_1_img",
            "uri": "textureAtlas_670915789_1.jpeg"
        },
        "textureAtlas_670915789_2_img": {
            "name": "textureAtlas_670915789_2_img",
            "uri": "textureAtlas_670915789_2.jpeg"
        },
        "textureAtlas_670915789_3_img": {
            "name": "textureAtlas_670915789_3_img",
            "uri": "textureAtlas_670915789_3.jpeg"
        },
        "textureAtlas_670915789_4_img": {
            "name": "textureAtlas_670915789_4_img",
            "uri": "textureAtlas_670915789_4.jpeg"
        },
        "textureAtlas_670915789_5_img": {
            "name": "textureAtlas_670915789_5_img",
            "uri": "textureAtlas_670915789_5.jpeg"
        },
        "textureAtlas_670915789_6_img": {
            "name": "textureAtlas_670915789_6_img",
            "uri": "textureAtlas_670915789_6.jpeg"
        }
    },
    "materials": {
        "default_ai_0.2_sh_0.2_tr_0.0_dc_r_0.8_g_0.8_b_0.8_sc_r_1.0_g_1.0_b_1.0_ec_r_0.0_g_0.0_b_0_eff": {
            "name": "default_ai_0.2_sh_0.2_tr_0.0_dc_r_0.8_g_0.8_b_0.8_sc_r_1.0_g_1.0_b_1.0_ec_r_0.0_g_0.0_b_0_mat",
            "technique": "technique0",
            "values": {
                "diffuse": [
                    0.8,
                    0.8,
                    0.8,
                    1
                ],
                "emission": [
                    0,
                    0,
                    0,
                    1
                ]
            }
        },
        "textureAtlas_670915789_0_eff": {
            "name": "textureAtlas_670915789_0_mat",
            "technique": "technique1",
            "values": {
                "diffuse": "texture_textureAtlas_670915789_0_img",
                "emission": [
                    0,
                    0,
                    0,
                    1
                ]
            }
        },
        "textureAtlas_670915789_1_eff": {
            "name": "textureAtlas_670915789_1_mat",
            "technique": "technique1",
            "values": {
                "diffuse": "texture_textureAtlas_670915789_1_img",
                "emission": [
                    0,
                    0,
                    0,
                    1
                ]
            }
        },
        "textureAtlas_670915789_2_eff": {
            "name": "textureAtlas_670915789_2_mat",
            "technique": "technique1",
            "values": {
                "diffuse": "texture_textureAtlas_670915789_2_img",
                "emission": [
                    0,
                    0,
                    0,
                    1
                ]
            }
        },
        "textureAtlas_670915789_3_eff": {
            "name": "textureAtlas_670915789_3_mat",
            "technique": "technique1",
            "values": {
                "diffuse": "texture_textureAtlas_670915789_3_img",
                "emission": [
                    0,
                    0,
                    0,
                    1
                ]
            }
        },
        "textureAtlas_670915789_4_eff": {
            "name": "textureAtlas_670915789_4_mat",
            "technique": "technique1",
            "values": {
                "diffuse": "texture_textureAtlas_670915789_4_img",
                "emission": [
                    0,
                    0,
                    0,
                    1
                ]
            }
        },
        "textureAtlas_670915789_5_eff": {
            "name": "textureAtlas_670915789_5_mat",
            "technique": "technique1",
            "values": {
                "diffuse": "texture_textureAtlas_670915789_5_img",
                "emission": [
                    0,
                    0,
                    0,
                    1
                ]
            }
        },
        "textureAtlas_670915789_6_eff": {
            "name": "textureAtlas_670915789_6_mat",
            "technique": "technique1",
            "values": {
                "diffuse": "texture_textureAtlas_670915789_6_img",
                "emission": [
                    0,
                    0,
                    0,
                    1
                ]
            }
        }
    },
    "meshes": {
        "geometry0": {
            "name": "geometry0",
            "primitives": [
                {
                    "attributes": {
                        "NORMAL": "accessor_160",
                        "POSITION": "accessor_158",
                        "TEXCOORD_0": "accessor_162"
                    },
                    "indices": "accessor_135",
                    "material": "textureAtlas_670915789_1_eff",
                    "mode": 4
                },
                {
                    "attributes": {
                        "NORMAL": "accessor_160",
                        "POSITION": "accessor_158",
                        "TEXCOORD_0": "accessor_162"
                    },
                    "indices": "accessor_138",
                    "material": "textureAtlas_670915789_5_eff",
                    "mode": 4
                },
                {
                    "attributes": {
                        "NORMAL": "accessor_160",
                        "POSITION": "accessor_158",
                        "TEXCOORD_0": "accessor_162"
                    },
                    "indices": "accessor_141",
                    "material": "textureAtlas_670915789_0_eff",
                    "mode": 4
                },
                {
                    "attributes": {
                        "NORMAL": "accessor_160",
                        "POSITION": "accessor_158",
                        "TEXCOORD_0": "accessor_162"
                    },
                    "indices": "accessor_144",
                    "material": "textureAtlas_670915789_3_eff",
                    "mode": 4
                },
                {
                    "attributes": {
                        "NORMAL": "accessor_160",
                        "POSITION": "accessor_158",
                        "TEXCOORD_0": "accessor_162"
                    },
                    "indices": "accessor_147",
                    "material": "textureAtlas_670915789_6_eff",
                    "mode": 4
                },
                {
                    "attributes": {
                        "NORMAL": "accessor_160",
                        "POSITION": "accessor_158",
                        "TEXCOORD_0": "accessor_162"
                    },
                    "indices": "accessor_150",
                    "material": "textureAtlas_670915789_4_eff",
                    "mode": 4
                },
                {
                    "attributes": {
                        "NORMAL": "accessor_160",
                        "POSITION": "accessor_158",
                        "TEXCOORD_0": "accessor_162"
                    },
                    "indices": "accessor_153",
                    "material": "textureAtlas_670915789_2_eff",
                    "mode": 4
                },
                {
                    "attributes": {
                        "NORMAL": "accessor_160",
                        "POSITION": "accessor_158"
                    },
                    "indices": "accessor_156",
                    "material": "default_ai_0.2_sh_0.2_tr_0.0_dc_r_0.8_g_0.8_b_0.8_sc_r_1.0_g_1.0_b_1.0_ec_r_0.0_g_0.0_b_0_eff",
                    "mode": 4
                }
            ]
        }
    },
    "nodes": {
        "node_0": {
            "children": [],
            "matrix": [
                1,
                0,
                0,
                0,
                0,
                1,
                0,
                0,
                0,
                0,
                1,
                0,
                0,
                0,
                0,
                1
            ],
            "meshes": [
                "geometry0"
            ],
            "name": ""
        },
        "node_1": {
            "children": [
                "node_0"
            ],
            "matrix": [
                1,
                0,
                0,
                0,
                0,
                0,
                -1,
                0,
                0,
                1,
                0,
                0,
                0,
                0,
                0,
                1
            ],
            "name": "Y_UP_Transform"
        }
    },
    "programs": {
        "program_0": {
            "attributes": [
                "a_normal",
                "a_position"
            ],
            "fragmentShader": "BLDG_00030000001ebd920FS",
            "vertexShader": "BLDG_00030000001ebd920VS"
        },
        "program_1": {
            "attributes": [
                "a_normal",
                "a_position",
                "a_texcoord0"
            ],
            "fragmentShader": "BLDG_00030000001ebd921FS",
            "vertexShader": "BLDG_00030000001ebd921VS"
        }
    },
    "samplers": {
        "sampler_0": {
            "magFilter": 9729,
            "minFilter": 9729,
            "wrapS": 10497,
            "wrapT": 10497
        }
    },
    "scene": "defaultScene",
    "scenes": {
        "defaultScene": {
            "nodes": [
                "node_1"
            ]
        }
    },
    "shaders": {
        "BLDG_00030000001ebd920FS": {
            "type": 35632,
            "uri": "data:text/plain;base64,"
        },
        "BLDG_00030000001ebd920VS": {
            "type": 35633,
            "uri": "data:text/plain;base64,"
        },
        "BLDG_00030000001ebd921FS": {
            "type": 35632,
            "uri": "data:text/plain;base64,"
        },
        "BLDG_00030000001ebd921VS": {
            "type": 35633,
            "uri": "data:text/plain;base64,"
        }
    },
    "skins": {},
    "techniques": {
        "technique0": {
            "attributes": {
                "a_normal": "normal",
                "a_position": "position"
            },
            "parameters": {
                "diffuse": {
                    "type": 35666
                },
                "emission": {
                    "type": 35666
                },
                "modelViewMatrix": {
                    "semantic": "MODELVIEW",
                    "type": 35676
                },
                "normal": {
                    "semantic": "NORMAL",
                    "type": 35665
                },
                "normalMatrix": {
                    "semantic": "MODELVIEWINVERSETRANSPOSE",
                    "type": 35675
                },
                "position": {
                    "semantic": "POSITION",
                    "type": 35665
                },
                "projectionMatrix": {
                    "semantic": "PROJECTION",
                    "type": 35676
                }
            },
            "program": "program_0",
            "states": {
                "enable": [
                    2929
                ]
            },
            "uniforms": {
                "u_diffuse": "diffuse",
                "u_emission": "emission",
                "u_modelViewMatrix": "modelViewMatrix",
                "u_normalMatrix": "normalMatrix",
                "u_projectionMatrix": "projectionMatrix"
            }
        },
        "technique1": {
            "attributes": {
                "a_normal": "normal",
                "a_position": "position",
                "a_texcoord0": "texcoord0"
            },
            "parameters": {
                "diffuse": {
                    "type": 35678
                },
                "emission": {
                    "type": 35666
                },
                "modelViewMatrix": {
                    "semantic": "MODELVIEW",
                    "type": 35676
                },
                "normal": {
                    "semantic": "NORMAL",
                    "type": 35665
                },
                "normalMatrix": {
                    "semantic": "MODELVIEWINVERSETRANSPOSE",
                    "type": 35675
                },
                "position": {
                    "semantic": "POSITION",
                    "type": 35665
                },
                "projectionMatrix": {
                    "semantic": "PROJECTION",
                    "type": 35676
                },
                "texcoord0": {
                    "semantic": "TEXCOORD_0",
                    "type": 35664
                }
            },
            "program": "program_1",
            "states": {
                "enable": [
                    2929
                ]
            },
            "uniforms": {
                "u_diffuse": "diffuse",
                "u_emission": "emission",
                "u_modelViewMatrix": "modelViewMatrix",
                "u_normalMatrix": "normalMatrix",
                "u_projectionMatrix": "projectionMatrix"
            }
        }
    },
    "textures": {
        "texture_textureAtlas_670915789_0_img": {
            "format": 6408,
            "internalFormat": 6408,
            "sampler": "sampler_0",
            "source": "textureAtlas_670915789_0_img",
            "target": 3553,
            "type": 5121
        },
        "texture_textureAtlas_670915789_1_img": {
            "format": 6408,
            "internalFormat": 6408,
            "sampler": "sampler_0",
            "source": "textureAtlas_670915789_1_img",
            "target": 3553,
            "type": 5121
        },
        "texture_textureAtlas_670915789_2_img": {
            "format": 6408,
            "internalFormat": 6408,
            "sampler": "sampler_0",
            "source": "textureAtlas_670915789_2_img",
            "target": 3553,
            "type": 5121
        },
        "texture_textureAtlas_670915789_3_img": {
            "format": 6408,
            "internalFormat": 6408,
            "sampler": "sampler_0",
            "source": "textureAtlas_670915789_3_img",
            "target": 3553,
            "type": 5121
        },
        "texture_textureAtlas_670915789_4_img": {
            "format": 6408,
            "internalFormat": 6408,
            "sampler": "sampler_0",
            "source": "textureAtlas_670915789_4_img",
            "target": 3553,
            "type": 5121
        },
        "texture_textureAtlas_670915789_5_img": {
            "format": 6408,
            "internalFormat": 6408,
            "sampler": "sampler_0",
            "source": "textureAtlas_670915789_5_img",
            "target": 3553,
            "type": 5121
        },
        "texture_textureAtlas_670915789_6_img": {
            "format": 6408,
            "internalFormat": 6408,
            "sampler": "sampler_0",
            "source": "textureAtlas_670915789_6_img",
            "target": 3553,
            "type": 5121
        }
    }
}